<?xml version="1.0" encoding="UTF-8"?>
<svg xmlns="http://www.w3.org/2000/svg" xmlns:xlink="http://www.w3.org/1999/xlink" width="4000" height="4000" viewBox="0 0 4000 4000">
<rect x="-400" y="-400" width="4800" height="4800" fill="rgb(100%, 100%, 100%)" fill-opacity="1"/>
<path fill-rule="evenodd" fill="rgb(84.959412%, 75.584412%, 3.399658%)" fill-opacity="1" d="M 2000 900 C 2607.109375 900 3100 1392.890625 3100 2000 C 3100 2607.109375 2607.109375 3100 2000 3100 C 1392.890625 3100 900 2607.109375 900 2000 C 900 1392.890625 1392.890625 900 2000 900 "/>
<path fill-rule="evenodd" fill="rgb(86.914062%, 84.375%, 32.592773%)" fill-opacity="1" d="M 2000 950.199219 C 2579.398438 950.199219 3049.800781 1420.601562 3049.800781 2000 C 3049.800781 2579.398438 2579.398438 3049.796875 2000 3049.796875 C 1420.601562 3049.796875 950.203125 2579.398438 950.203125 2000 C 950.203125 1420.601562 1420.601562 950.199219 2000 950.199219 "/>
<path fill-rule="evenodd" fill="rgb(99.414062%, 97.851562%, 65.625%)" fill-opacity="1" d="M 2000 966.589844 C 2570.359375 966.589844 3033.410156 1429.640625 3033.410156 2000 C 3033.410156 2570.359375 2570.359375 3033.410156 2000 3033.410156 C 1429.640625 3033.410156 966.589844 2570.359375 966.589844 2000 C 966.589844 1429.640625 1429.640625 966.589844 2000 966.589844 "/>
<path fill-rule="evenodd" fill="rgb(100%, 97.459412%, 45.996094%)" fill-opacity="1" d="M 1999.988281 1108.441406 C 1995.96875 1086.289062 1984.679688 1065.898438 1967.648438 1050.660156 C 1946.019531 1031.308594 1917.179688 1022.089844 1888.339844 1025.308594 C 1888.339844 1025.308594 1888.328125 1025.308594 1888.320312 1025.308594 C 1701.238281 1046.558594 1530.050781 1120.511719 1389.941406 1231.949219 C 1389.929688 1231.949219 1389.921875 1231.960938 1389.921875 1231.960938 C 1367.238281 1250.078125 1353.351562 1277 1351.730469 1305.980469 C 1350.460938 1328.808594 1356.898438 1351.21875 1369.730469 1369.738281 C 1351.210938 1356.921875 1328.808594 1350.480469 1305.980469 1351.761719 C 1277.011719 1353.371094 1250.089844 1367.261719 1231.980469 1389.929688 C 1231.96875 1389.941406 1231.96875 1389.949219 1231.960938 1389.949219 C 1120.519531 1530.039062 1046.570312 1701.230469 1025.308594 1888.308594 C 1025.300781 1888.320312 1025.300781 1888.328125 1025.300781 1888.339844 C 1022.078125 1917.179688 1031.300781 1946.03125 1050.648438 1967.660156 C 1065.898438 1984.699219 1086.289062 1995.980469 1108.441406 2000.011719 C 1086.289062 2004.03125 1065.898438 2015.320312 1050.660156 2032.351562 C 1031.308594 2053.980469 1022.089844 2082.820312 1025.308594 2111.660156 C 1025.308594 2111.660156 1025.308594 2111.671875 1025.308594 2111.679688 C 1046.558594 2298.761719 1120.511719 2469.949219 1231.949219 2610.058594 C 1231.949219 2610.070312 1231.960938 2610.078125 1231.960938 2610.078125 C 1250.078125 2632.761719 1277 2646.648438 1305.980469 2648.269531 C 1328.808594 2649.539062 1351.230469 2643.101562 1369.738281 2630.269531 C 1356.921875 2648.789062 1350.480469 2671.191406 1351.761719 2694.019531 C 1353.371094 2722.988281 1367.261719 2749.910156 1389.929688 2768.019531 C 1389.941406 2768.03125 1389.949219 2768.03125 1389.949219 2768.039062 C 1530.039062 2879.480469 1701.230469 2953.429688 1888.308594 2974.691406 C 1888.320312 2974.699219 1888.328125 2974.699219 1888.339844 2974.699219 C 1917.179688 2977.921875 1946.03125 2968.699219 1967.660156 2949.351562 C 1984.699219 2934.101562 1995.980469 2913.710938 2000.011719 2891.558594 C 2004.03125 2913.710938 2015.320312 2934.101562 2032.351562 2949.339844 C 2053.980469 2968.691406 2082.820312 2977.910156 2111.660156 2974.691406 C 2111.660156 2974.691406 2111.671875 2974.691406 2111.679688 2974.691406 C 2298.761719 2953.441406 2469.949219 2879.488281 2610.058594 2768.050781 C 2610.070312 2768.050781 2610.078125 2768.039062 2610.078125 2768.039062 C 2632.761719 2749.921875 2646.648438 2723 2648.269531 2694.019531 C 2649.539062 2671.191406 2643.101562 2648.769531 2630.269531 2630.261719 C 2648.789062 2643.078125 2671.191406 2649.519531 2694.019531 2648.238281 C 2723 2646.628906 2749.910156 2632.738281 2768.019531 2610.070312 C 2768.03125 2610.058594 2768.03125 2610.050781 2768.039062 2610.050781 C 2879.480469 2469.960938 2953.429688 2298.769531 2974.699219 2111.691406 C 2974.699219 2111.679688 2974.699219 2111.671875 2974.699219 2111.660156 C 2977.921875 2082.820312 2968.699219 2053.96875 2949.351562 2032.339844 C 2934.101562 2015.300781 2913.710938 2004.019531 2891.558594 1999.988281 C 2913.710938 1995.96875 2934.101562 1984.679688 2949.339844 1967.648438 C 2968.691406 1946.019531 2977.910156 1917.179688 2974.691406 1888.339844 C 2974.691406 1888.339844 2974.691406 1888.328125 2974.691406 1888.320312 C 2953.441406 1701.238281 2879.488281 1530.050781 2768.050781 1389.941406 C 2768.050781 1389.929688 2768.039062 1389.921875 2768.039062 1389.921875 C 2749.921875 1367.238281 2723 1353.351562 2694.019531 1351.730469 C 2671.191406 1350.460938 2648.78125 1356.898438 2630.261719 1369.730469 C 2643.078125 1351.210938 2649.519531 1328.808594 2648.238281 1305.980469 C 2646.628906 1277 2632.738281 1250.089844 2610.070312 1231.980469 C 2610.058594 1231.96875 2610.050781 1231.96875 2610.050781 1231.960938 C 2469.960938 1120.519531 2298.769531 1046.570312 2111.691406 1025.300781 C 2111.679688 1025.300781 2111.671875 1025.300781 2111.660156 1025.300781 C 2082.820312 1022.078125 2053.96875 1031.300781 2032.339844 1050.648438 C 2015.300781 1065.898438 2004.019531 1086.289062 1999.988281 1108.441406 Z M 2000 1981.089844 C 1998.710938 1983.289062 1996.710938 1985.078125 1994.238281 1986.101562 C 1991.78125 1987.121094 1989.101562 1987.269531 1986.628906 1986.628906 C 1987.269531 1989.101562 1987.121094 1991.769531 1986.101562 1994.238281 C 1985.078125 1996.710938 1983.289062 1998.699219 1981.089844 2000 C 1983.289062 2001.289062 1985.078125 2003.289062 1986.101562 2005.761719 C 1987.121094 2008.21875 1987.269531 2010.898438 1986.628906 2013.371094 C 1989.101562 2012.730469 1991.78125 2012.878906 1994.238281 2013.898438 C 1996.710938 2014.921875 1998.710938 2016.710938 2000 2018.910156 C 2001.300781 2016.710938 2003.289062 2014.921875 2005.761719 2013.898438 C 2008.230469 2012.878906 2010.898438 2012.730469 2013.371094 2013.371094 C 2012.730469 2010.898438 2012.878906 2008.21875 2013.898438 2005.761719 C 2014.921875 2003.289062 2016.710938 2001.289062 2018.910156 2000 C 2016.710938 1998.699219 2014.921875 1996.710938 2013.898438 1994.238281 C 2012.878906 1991.769531 2012.730469 1989.101562 2013.371094 1986.628906 C 2010.898438 1987.269531 2008.230469 1987.121094 2005.761719 1986.101562 C 2003.289062 1985.078125 2001.300781 1983.289062 2000 1981.089844 "/>
<path fill-rule="evenodd" fill="rgb(83.201599%, 96.09375%, 3.900146%)" fill-opacity="1" d="M 1989.648438 2873.328125 C 1989.648438 2898.929688 1978.738281 2923.328125 1959.660156 2940.398438 C 1940.570312 2957.480469 1915.121094 2965.609375 1889.671875 2962.769531 C 1704.878906 2941.761719 1535.789062 2868.71875 1397.421875 2758.640625 C 1377.421875 2742.660156 1365.160156 2718.921875 1363.738281 2693.351562 C 1362.308594 2667.78125 1371.851562 2642.820312 1389.949219 2624.710938 C 1559.570312 2455.070312 1989.648438 2024.988281 1989.648438 2024.988281 C 1989.648438 2024.988281 1989.648438 2633.421875 1989.648438 2873.328125 Z M 2610.058594 2624.699219 C 2628.179688 2642.808594 2637.710938 2667.78125 2636.289062 2693.351562 C 2634.859375 2718.921875 2622.609375 2742.679688 2602.589844 2758.660156 C 2464.199219 2868.730469 2295.109375 2941.78125 2110.328125 2962.761719 C 2084.878906 2965.601562 2059.429688 2957.46875 2040.351562 2940.390625 C 2021.269531 2923.320312 2010.371094 2898.941406 2010.371094 2873.328125 C 2010.351562 2633.429688 2010.351562 2024.988281 2010.351562 2024.988281 C 2010.351562 2024.988281 2440.441406 2455.070312 2610.058594 2624.699219 Z M 2873.328125 2010.351562 C 2898.929688 2010.351562 2923.328125 2021.261719 2940.398438 2040.339844 C 2957.480469 2059.429688 2965.609375 2084.878906 2962.769531 2110.328125 C 2941.761719 2295.121094 2868.71875 2464.210938 2758.640625 2602.578125 C 2742.671875 2622.578125 2718.921875 2634.839844 2693.351562 2636.261719 C 2667.78125 2637.691406 2642.820312 2628.148438 2624.710938 2610.050781 C 2455.070312 2440.429688 2024.988281 2010.351562 2024.988281 2010.351562 C 2024.988281 2010.351562 2633.421875 2010.351562 2873.328125 2010.351562 Z M 1975.011719 2010.351562 C 1975.011719 2010.351562 1544.929688 2440.441406 1375.300781 2610.058594 C 1357.191406 2628.171875 1332.21875 2637.710938 1306.648438 2636.289062 C 1281.078125 2634.859375 1257.320312 2622.609375 1241.339844 2602.589844 C 1131.269531 2464.199219 1058.21875 2295.109375 1037.238281 2110.320312 C 1034.398438 2084.878906 1042.53125 2059.429688 1059.609375 2040.351562 C 1076.679688 2021.269531 1101.058594 2010.371094 1126.671875 2010.371094 C 1366.570312 2010.351562 1975.011719 2010.351562 1975.011719 2010.351562 Z M 1975.011719 1989.648438 C 1975.011719 1989.648438 1366.578125 1989.648438 1126.671875 1989.648438 C 1101.070312 1989.648438 1076.671875 1978.738281 1059.601562 1959.660156 C 1042.519531 1940.570312 1034.390625 1915.121094 1037.230469 1889.671875 C 1058.238281 1704.878906 1131.28125 1535.789062 1241.359375 1397.421875 C 1257.339844 1377.410156 1281.078125 1365.160156 1306.648438 1363.738281 C 1332.21875 1362.308594 1357.179688 1371.851562 1375.289062 1389.949219 C 1544.929688 1559.570312 1975.011719 1989.648438 1975.011719 1989.648438 Z M 2624.699219 1389.941406 C 2642.808594 1371.820312 2667.78125 1362.289062 2693.351562 1363.710938 C 2718.921875 1365.140625 2742.679688 1377.390625 2758.660156 1397.410156 C 2868.730469 1535.800781 2941.78125 1704.890625 2962.761719 1889.671875 C 2965.601562 1915.121094 2957.46875 1940.570312 2940.390625 1959.648438 C 2923.328125 1978.730469 2898.941406 1989.628906 2873.328125 1989.628906 C 2633.429688 1989.648438 2024.988281 1989.648438 2024.988281 1989.648438 C 2024.988281 1989.648438 2455.070312 1559.558594 2624.699219 1389.941406 Z M 1989.648438 1975.011719 C 1989.648438 1975.011719 1559.558594 1544.929688 1389.941406 1375.300781 C 1371.828125 1357.191406 1362.289062 1332.21875 1363.710938 1306.648438 C 1365.140625 1281.078125 1377.390625 1257.320312 1397.410156 1241.339844 C 1535.800781 1131.269531 1704.890625 1058.21875 1889.679688 1037.238281 C 1915.121094 1034.398438 1940.570312 1042.53125 1959.648438 1059.609375 C 1978.730469 1076.671875 1989.628906 1101.058594 1989.628906 1126.671875 C 1989.648438 1366.570312 1989.648438 1975.011719 1989.648438 1975.011719 Z M 2010.351562 1126.671875 C 2010.351562 1101.070312 2021.261719 1076.671875 2040.339844 1059.601562 C 2059.429688 1042.519531 2084.878906 1034.390625 2110.328125 1037.230469 C 2295.121094 1058.238281 2464.210938 1131.28125 2602.578125 1241.359375 C 2622.589844 1257.328125 2634.839844 1281.078125 2636.261719 1306.648438 C 2637.691406 1332.21875 2628.148438 1357.179688 2610.050781 1375.289062 C 2440.429688 1544.929688 2010.351562 1975.011719 2010.351562 1975.011719 C 2010.351562 1975.011719 2010.351562 1366.578125 2010.351562 1126.671875 "/>
<path fill-rule="evenodd" fill="rgb(90.039062%, 97.65625%, 42.993164%)" fill-opacity="1" d="M 2233.550781 2886.410156 C 2216.949219 2846.691406 2238.480469 2822.910156 2236.449219 2806.859375 C 2230.480469 2759.871094 2192.148438 2718.390625 2192.148438 2718.390625 C 2192.148438 2718.390625 2235.019531 2783.390625 2206.691406 2814.800781 C 2195.828125 2826.839844 2212.371094 2862.628906 2233.550781 2886.410156 Z M 1757.039062 2883.898438 C 1762.609375 2841.238281 1793.199219 2831.359375 1799.5 2816.449219 C 1817.941406 2772.789062 1805.578125 2717.78125 1805.578125 2717.78125 C 1805.578125 2717.78125 1810.058594 2795.410156 1769.75 2808.511719 C 1754.300781 2813.53125 1750.640625 2852.761719 1757.039062 2883.898438 Z M 2456.050781 2796.03125 C 2429.691406 2761.949219 2444.308594 2733.429688 2438.171875 2718.449219 C 2420.191406 2674.589844 2372.378906 2644.410156 2372.378906 2644.410156 C 2372.378906 2644.410156 2430.691406 2696.140625 2411.488281 2733.78125 C 2404.128906 2748.210938 2429.410156 2778.519531 2456.050781 2796.03125 Z M 1535.511719 2791.179688 C 1551.980469 2751.410156 1584.101562 2749.761719 1594.058594 2736.96875 C 1623.230469 2699.550781 1625.578125 2643.230469 1625.578125 2643.230469 C 1625.578125 2643.230469 1609.730469 2719.371094 1567.378906 2721.640625 C 1551.148438 2722.511719 1537.421875 2759.460938 1535.511719 2791.179688 Z M 2180.789062 2688.78125 C 2165.628906 2652.519531 2185.289062 2630.808594 2183.441406 2616.148438 C 2177.988281 2573.25 2142.988281 2535.371094 2142.988281 2535.371094 C 2142.988281 2535.371094 2182.128906 2594.71875 2156.269531 2623.398438 C 2146.351562 2634.390625 2161.449219 2667.070312 2180.789062 2688.78125 Z M 1810.621094 2686.480469 C 1815.699219 2647.539062 1843.628906 2638.519531 1849.390625 2624.898438 C 1866.21875 2585.039062 1854.929688 2534.820312 1854.929688 2534.820312 C 1854.929688 2534.820312 1859.019531 2605.699219 1822.21875 2617.660156 C 1808.109375 2622.238281 1804.769531 2658.058594 1810.621094 2686.480469 Z M 2353.710938 2618.730469 C 2329.640625 2587.609375 2342.988281 2561.570312 2337.378906 2547.890625 C 2320.96875 2507.851562 2277.308594 2480.289062 2277.308594 2480.289062 C 2277.308594 2480.289062 2330.550781 2527.53125 2313.019531 2561.890625 C 2306.300781 2575.058594 2329.390625 2602.738281 2353.710938 2618.730469 Z M 1638.589844 2614.300781 C 1653.628906 2577.988281 1682.949219 2576.480469 1692.050781 2564.808594 C 1718.671875 2530.640625 1720.820312 2479.21875 1720.820312 2479.21875 C 1720.820312 2479.21875 1706.351562 2548.738281 1667.691406 2550.808594 C 1652.871094 2551.601562 1640.328125 2585.328125 1638.589844 2614.300781 Z M 2132.621094 2508.328125 C 2118.78125 2475.230469 2136.738281 2455.410156 2135.039062 2442.019531 C 2130.070312 2402.851562 2098.109375 2368.269531 2098.109375 2368.269531 C 2098.109375 2368.269531 2133.851562 2422.460938 2110.230469 2448.640625 C 2101.179688 2458.679688 2114.96875 2488.511719 2132.621094 2508.328125 Z M 1859.53125 2506.238281 C 1864.179688 2470.679688 1889.679688 2462.449219 1894.929688 2450.019531 C 1910.300781 2413.621094 1899.988281 2367.769531 1899.988281 2367.769531 C 1899.988281 2367.769531 1903.730469 2432.480469 1870.121094 2443.398438 C 1857.238281 2447.589844 1854.199219 2480.289062 1859.53125 2506.238281 Z M 2794.78125 2462.390625 C 2754.828125 2445.988281 2753.160156 2414.019531 2740.320312 2404.101562 C 2702.730469 2375.070312 2646.148438 2372.71875 2646.148438 2372.71875 C 2646.148438 2372.71875 2722.640625 2388.511719 2724.921875 2430.660156 C 2725.789062 2446.820312 2762.910156 2460.480469 2794.78125 2462.390625 Z M 2260.269531 2456.839844 C 2238.289062 2428.429688 2250.480469 2404.660156 2245.359375 2392.171875 C 2230.378906 2355.609375 2190.519531 2330.449219 2190.519531 2330.449219 C 2190.519531 2330.449219 2239.128906 2373.578125 2223.121094 2404.949219 C 2216.988281 2416.980469 2238.058594 2442.25 2260.269531 2456.839844 Z M 1200.351562 2453.988281 C 1234.589844 2427.75 1263.238281 2442.300781 1278.289062 2436.191406 C 1322.339844 2418.289062 1352.671875 2370.691406 1352.671875 2370.691406 C 1352.671875 2370.691406 1300.691406 2428.738281 1262.878906 2409.628906 C 1248.390625 2402.300781 1217.941406 2427.46875 1200.351562 2453.988281 Z M 1732.699219 2452.800781 C 1746.429688 2419.648438 1773.199219 2418.269531 1781.511719 2407.609375 C 1805.820312 2376.421875 1807.78125 2329.46875 1807.78125 2329.46875 C 1807.78125 2329.46875 1794.558594 2392.941406 1759.269531 2394.828125 C 1745.738281 2395.558594 1734.289062 2426.359375 1732.699219 2452.800781 Z M 2617.089844 2359.78125 C 2580.621094 2344.808594 2579.101562 2315.621094 2567.371094 2306.558594 C 2533.050781 2280.058594 2481.390625 2277.910156 2481.390625 2277.910156 C 2481.390625 2277.910156 2551.230469 2292.320312 2553.308594 2330.808594 C 2554.109375 2345.558594 2587.988281 2358.039062 2617.089844 2359.78125 Z M 1378.460938 2352.109375 C 1409.71875 2328.148438 1435.878906 2341.441406 1449.621094 2335.859375 C 1489.839844 2319.519531 1517.53125 2276.058594 1517.53125 2276.058594 C 1517.53125 2276.058594 1470.070312 2329.058594 1435.550781 2311.609375 C 1422.320312 2304.921875 1394.519531 2327.890625 1378.460938 2352.109375 Z M 2088.640625 2343.589844 C 2076.011719 2313.359375 2092.398438 2295.261719 2090.851562 2283.050781 C 2086.308594 2247.28125 2057.128906 2215.710938 2057.128906 2215.710938 C 2057.128906 2215.710938 2089.761719 2265.179688 2068.199219 2289.089844 C 2059.941406 2298.25 2072.519531 2325.488281 2088.640625 2343.589844 Z M 1904.191406 2341.679688 C 1908.429688 2309.210938 1931.71875 2301.699219 1936.511719 2290.339844 C 1950.550781 2257.109375 1941.128906 2215.25 1941.128906 2215.25 C 1941.128906 2215.25 1944.539062 2274.328125 1913.859375 2284.300781 C 1902.101562 2288.121094 1899.320312 2317.980469 1904.191406 2341.679688 Z M 2174.960938 2309.039062 C 2154.890625 2283.101562 2166.019531 2261.398438 2161.339844 2249.988281 C 2147.660156 2216.621094 2111.269531 2193.640625 2111.269531 2193.640625 C 2111.269531 2193.640625 2155.648438 2233.019531 2141.039062 2261.660156 C 2135.441406 2272.640625 2154.679688 2295.710938 2174.960938 2309.039062 Z M 1818.621094 2305.351562 C 1831.160156 2275.078125 1855.601562 2273.820312 1863.191406 2264.089844 C 1885.378906 2235.609375 1887.179688 2192.75 1887.179688 2192.75 C 1887.179688 2192.75 1875.109375 2250.699219 1842.878906 2252.421875 C 1830.53125 2253.078125 1820.078125 2281.210938 1818.621094 2305.351562 Z M 2454.859375 2266.089844 C 2421.558594 2252.421875 2420.171875 2225.769531 2409.46875 2217.511719 C 2378.128906 2193.300781 2330.96875 2191.351562 2330.96875 2191.351562 C 2330.96875 2191.351562 2394.730469 2204.511719 2396.628906 2239.640625 C 2397.351562 2253.109375 2428.289062 2264.511719 2454.859375 2266.089844 Z M 1541.078125 2259.089844 C 1569.621094 2237.21875 1593.5 2249.351562 1606.050781 2244.25 C 1642.769531 2229.328125 1668.050781 2189.660156 1668.050781 2189.660156 C 1668.050781 2189.660156 1624.71875 2238.039062 1593.210938 2222.109375 C 1581.128906 2216 1555.738281 2236.980469 1541.078125 2259.089844 Z M 2887.910156 2241.859375 C 2845.058594 2236.308594 2835.140625 2205.859375 2820.160156 2199.589844 C 2776.300781 2181.230469 2721.039062 2193.539062 2721.039062 2193.539062 C 2721.039062 2193.539062 2799.03125 2189.078125 2812.191406 2229.210938 C 2817.230469 2244.589844 2856.640625 2248.230469 2887.910156 2241.859375 Z M 1109.558594 2232.488281 C 1149.460938 2215.960938 1173.351562 2237.398438 1189.46875 2235.371094 C 1236.679688 2229.441406 1278.351562 2191.28125 1278.351562 2191.28125 C 1278.351562 2191.28125 1213.050781 2233.960938 1181.5 2205.75 C 1169.410156 2194.941406 1133.449219 2211.410156 1109.558594 2232.488281 Z M 2048.488281 2193.171875 C 2036.960938 2165.570312 2051.921875 2149.050781 2050.5 2137.890625 C 2046.359375 2105.238281 2019.71875 2076.421875 2019.71875 2076.421875 C 2019.71875 2076.421875 2049.511719 2121.589844 2029.828125 2143.410156 C 2022.28125 2151.78125 2033.769531 2176.648438 2048.488281 2193.171875 Z M 1944.96875 2191.429688 C 1948.839844 2161.78125 1970.101562 2154.921875 1974.480469 2144.558594 C 1987.289062 2114.21875 1978.699219 2075.988281 1978.699219 2075.988281 C 1978.699219 2075.988281 1981.808594 2129.941406 1953.800781 2139.039062 C 1943.058594 2142.53125 1940.519531 2169.789062 1944.96875 2191.429688 Z M 2689.601562 2188.53125 C 2650.480469 2183.460938 2641.421875 2155.660156 2627.738281 2149.929688 C 2587.699219 2133.171875 2537.25 2144.410156 2537.25 2144.410156 C 2537.25 2144.410156 2608.449219 2140.339844 2620.460938 2176.980469 C 2625.070312 2191.019531 2661.050781 2194.339844 2689.601562 2188.53125 Z M 1308.089844 2179.96875 C 1344.519531 2164.878906 1366.328125 2184.460938 1381.050781 2182.609375 C 1424.148438 2177.191406 1462.191406 2142.339844 1462.191406 2142.339844 C 1462.191406 2142.339844 1402.578125 2181.308594 1373.769531 2155.558594 C 1362.730469 2145.691406 1329.898438 2160.71875 1308.089844 2179.96875 Z M 2306.738281 2180.558594 C 2276.328125 2168.078125 2275.070312 2143.738281 2265.289062 2136.191406 C 2236.679688 2114.101562 2193.621094 2112.308594 2193.621094 2112.308594 C 2193.621094 2112.308594 2251.839844 2124.328125 2253.570312 2156.410156 C 2254.230469 2168.699219 2282.488281 2179.109375 2306.738281 2180.558594 Z M 1689.550781 2174.160156 C 1715.609375 2154.191406 1737.421875 2165.269531 1748.871094 2160.609375 C 1782.398438 2147 1805.480469 2110.769531 1805.480469 2110.769531 C 1805.480469 2110.769531 1765.921875 2154.949219 1737.148438 2140.398438 C 1726.121094 2134.820312 1702.941406 2153.980469 1689.550781 2174.160156 Z M 2097.058594 2174.101562 C 2078.738281 2150.410156 2088.898438 2130.589844 2084.640625 2120.179688 C 2072.140625 2089.710938 2038.921875 2068.730469 2038.921875 2068.730469 C 2038.921875 2068.730469 2079.441406 2104.691406 2066.089844 2130.839844 C 2060.980469 2140.859375 2078.550781 2161.929688 2097.058594 2174.101562 Z M 1897.078125 2170.730469 C 1908.519531 2143.089844 1930.839844 2141.941406 1937.761719 2133.058594 C 1958.03125 2107.050781 1959.660156 2067.921875 1959.660156 2067.921875 C 1959.660156 2067.921875 1948.648438 2120.828125 1919.21875 2122.398438 C 1907.941406 2123.011719 1898.398438 2148.679688 1897.078125 2170.730469 Z M 2508.539062 2139.828125 C 2472.820312 2135.210938 2464.550781 2109.820312 2452.058594 2104.601562 C 2415.5 2089.289062 2369.441406 2099.558594 2369.441406 2099.558594 C 2369.441406 2099.558594 2434.449219 2095.839844 2445.421875 2129.289062 C 2449.621094 2142.109375 2482.46875 2145.140625 2508.539062 2139.828125 Z M 1489.359375 2132.019531 C 1522.609375 2118.25 1542.53125 2136.121094 1555.96875 2134.429688 C 1595.320312 2129.480469 1630.050781 2097.671875 1630.050781 2097.671875 C 1630.050781 2097.671875 1575.621094 2133.238281 1549.320312 2109.730469 C 1539.238281 2100.71875 1509.269531 2114.449219 1489.359375 2132.019531 Z M 2171.5 2102.460938 C 2143.738281 2091.070312 2142.589844 2068.851562 2133.660156 2061.960938 C 2107.539062 2041.78125 2068.230469 2040.148438 2068.230469 2040.148438 C 2068.230469 2040.148438 2121.378906 2051.121094 2122.960938 2080.410156 C 2123.558594 2091.640625 2149.359375 2101.140625 2171.5 2102.460938 Z M 2343.230469 2095.371094 C 2310.621094 2091.148438 2303.070312 2067.96875 2291.660156 2063.199219 C 2258.28125 2049.230469 2216.230469 2058.601562 2216.230469 2058.601562 C 2216.230469 2058.601562 2275.578125 2055.210938 2285.589844 2085.75 C 2289.429688 2097.449219 2319.429688 2100.21875 2343.230469 2095.371094 Z M 1825.109375 2096.621094 C 1848.910156 2078.390625 1868.808594 2088.5 1879.269531 2084.25 C 1909.878906 2071.820312 1930.960938 2038.738281 1930.960938 2038.738281 C 1930.960938 2038.738281 1894.839844 2079.078125 1868.570312 2065.800781 C 1858.5 2060.710938 1837.339844 2078.191406 1825.109375 2096.621094 Z M 1654.851562 2088.238281 C 1685.210938 2075.660156 1703.390625 2091.980469 1715.671875 2090.441406 C 1751.589844 2085.921875 1783.308594 2056.871094 1783.308594 2056.871094 C 1783.308594 2056.871094 1733.609375 2089.359375 1709.601562 2067.890625 C 1700.390625 2059.660156 1673.03125 2072.199219 1654.851562 2088.238281 Z M 2192.300781 2054.78125 C 2162.519531 2050.929688 2155.628906 2029.761719 2145.21875 2025.410156 C 2114.738281 2012.648438 2076.339844 2021.210938 2076.339844 2021.210938 C 2076.339844 2021.210938 2130.53125 2018.109375 2139.679688 2045.988281 C 2143.179688 2056.679688 2170.558594 2059.210938 2192.300781 2054.78125 Z M 1805.949219 2048.269531 C 1833.671875 2036.789062 1850.269531 2051.679688 1861.480469 2050.269531 C 1894.28125 2046.148438 1923.238281 2019.628906 1923.238281 2019.628906 C 1923.238281 2019.628906 1877.859375 2049.289062 1855.941406 2029.691406 C 1847.53125 2022.179688 1822.550781 2033.621094 1805.949219 2048.269531 Z M 1807.699219 1945.21875 C 1837.480469 1949.070312 1844.371094 1970.230469 1854.789062 1974.589844 C 1885.261719 1987.351562 1923.660156 1978.789062 1923.660156 1978.789062 C 1923.660156 1978.789062 1869.46875 1981.890625 1860.328125 1954.011719 C 1856.820312 1943.320312 1829.441406 1940.789062 1807.699219 1945.21875 Z M 2194.050781 1951.730469 C 2166.328125 1963.210938 2149.730469 1948.320312 2138.519531 1949.71875 C 2105.71875 1953.851562 2076.761719 1980.371094 2076.761719 1980.371094 C 2076.761719 1980.371094 2122.140625 1950.710938 2144.058594 1970.308594 C 2152.46875 1977.820312 2177.449219 1966.378906 2194.050781 1951.730469 Z M 2174.890625 1903.378906 C 2151.089844 1921.609375 2131.191406 1911.5 2120.730469 1915.75 C 2090.121094 1928.179688 2069.039062 1961.261719 2069.039062 1961.261719 C 2069.039062 1961.261719 2105.160156 1920.921875 2131.429688 1934.199219 C 2141.5 1939.289062 2162.660156 1921.808594 2174.890625 1903.378906 Z M 1828.5 1897.539062 C 1856.261719 1908.929688 1857.421875 1931.148438 1866.339844 1938.039062 C 1892.460938 1958.21875 1931.78125 1959.851562 1931.78125 1959.851562 C 1931.78125 1959.851562 1878.628906 1948.878906 1877.039062 1919.589844 C 1876.441406 1908.359375 1850.640625 1898.859375 1828.5 1897.539062 Z M 1656.769531 1904.628906 C 1689.378906 1908.851562 1696.929688 1932.03125 1708.339844 1936.800781 C 1741.71875 1950.769531 1783.769531 1941.398438 1783.769531 1941.398438 C 1783.769531 1941.398438 1724.421875 1944.789062 1714.410156 1914.25 C 1710.570312 1902.550781 1680.570312 1899.78125 1656.769531 1904.628906 Z M 2345.148438 1911.761719 C 2314.789062 1924.328125 2296.609375 1908.019531 2284.328125 1909.558594 C 2248.410156 1914.078125 2216.691406 1943.121094 2216.691406 1943.121094 C 2216.691406 1943.121094 2266.390625 1910.640625 2290.398438 1932.109375 C 2299.609375 1940.328125 2326.96875 1927.800781 2345.148438 1911.761719 Z M 2102.929688 1829.269531 C 2091.480469 1856.910156 2069.160156 1858.058594 2062.238281 1866.941406 C 2041.96875 1892.949219 2040.339844 1932.078125 2040.339844 1932.078125 C 2040.339844 1932.078125 2051.351562 1879.171875 2080.78125 1877.601562 C 2092.058594 1876.988281 2101.601562 1851.320312 2102.929688 1829.269531 Z M 1902.941406 1825.898438 C 1921.261719 1849.589844 1911.101562 1869.410156 1915.371094 1879.820312 C 1927.859375 1910.289062 1961.078125 1931.269531 1961.078125 1931.269531 C 1961.078125 1931.269531 1920.558594 1895.308594 1933.910156 1869.160156 C 1939.019531 1859.140625 1921.449219 1838.070312 1902.941406 1825.898438 Z M 2055.03125 1808.570312 C 2051.160156 1838.210938 2029.898438 1845.078125 2025.519531 1855.441406 C 2012.710938 1885.78125 2021.300781 1924.011719 2021.300781 1924.011719 C 2021.300781 1924.011719 2018.191406 1870.058594 2046.199219 1860.960938 C 2056.941406 1857.46875 2059.480469 1830.210938 2055.03125 1808.570312 Z M 1951.511719 1806.828125 C 1963.050781 1834.421875 1948.078125 1850.949219 1949.5 1862.109375 C 1953.640625 1894.761719 1980.28125 1923.578125 1980.28125 1923.578125 C 1980.28125 1923.578125 1950.488281 1878.410156 1970.179688 1856.589844 C 1977.71875 1848.21875 1966.230469 1823.351562 1951.511719 1806.828125 Z M 1491.460938 1860.171875 C 1527.179688 1864.789062 1535.449219 1890.179688 1547.941406 1895.398438 C 1584.5 1910.710938 1630.558594 1900.441406 1630.558594 1900.441406 C 1630.558594 1900.441406 1565.550781 1904.160156 1554.578125 1870.710938 C 1550.378906 1857.890625 1517.53125 1854.859375 1491.460938 1860.171875 Z M 2510.640625 1867.980469 C 2477.390625 1881.75 2457.480469 1863.878906 2444.03125 1865.570312 C 2404.679688 1870.519531 2369.949219 1902.328125 2369.949219 1902.328125 C 2369.949219 1902.328125 2424.378906 1866.761719 2450.679688 1890.269531 C 2460.761719 1899.28125 2490.730469 1885.550781 2510.640625 1867.980469 Z M 2310.449219 1825.839844 C 2284.390625 1845.808594 2262.578125 1834.730469 2251.128906 1839.390625 C 2217.601562 1853 2194.519531 1889.230469 2194.519531 1889.230469 C 2194.519531 1889.230469 2234.078125 1845.050781 2262.851562 1859.601562 C 2273.878906 1865.171875 2297.058594 1846.019531 2310.449219 1825.839844 Z M 1693.261719 1819.441406 C 1723.671875 1831.921875 1724.929688 1856.261719 1734.710938 1863.800781 C 1763.320312 1885.898438 1806.378906 1887.691406 1806.378906 1887.691406 C 1806.378906 1887.691406 1748.160156 1875.671875 1746.429688 1843.589844 C 1745.769531 1831.289062 1717.519531 1820.890625 1693.261719 1819.441406 Z M 1310.398438 1811.46875 C 1349.519531 1816.539062 1358.578125 1844.339844 1372.261719 1850.070312 C 1412.300781 1866.828125 1462.75 1855.589844 1462.75 1855.589844 C 1462.75 1855.589844 1391.550781 1859.660156 1379.539062 1823.019531 C 1374.929688 1808.980469 1338.949219 1805.660156 1310.398438 1811.46875 Z M 2691.910156 1820.03125 C 2655.480469 1835.121094 2633.671875 1815.539062 2618.949219 1817.390625 C 2575.851562 1822.808594 2537.808594 1857.660156 2537.808594 1857.660156 C 2537.808594 1857.660156 2597.421875 1818.691406 2626.230469 1844.441406 C 2637.269531 1854.308594 2670.101562 1839.28125 2691.910156 1820.03125 Z M 1112.089844 1758.140625 C 1154.941406 1763.691406 1164.859375 1794.140625 1179.839844 1800.410156 C 1223.699219 1818.769531 1278.960938 1806.460938 1278.960938 1806.460938 C 1278.960938 1806.460938 1200.96875 1810.921875 1187.808594 1770.789062 C 1182.769531 1755.410156 1143.359375 1751.769531 1112.089844 1758.140625 Z M 2458.921875 1740.910156 C 2430.378906 1762.78125 2406.5 1750.648438 2393.949219 1755.75 C 2357.230469 1770.660156 2331.949219 1810.339844 2331.949219 1810.339844 C 2331.949219 1810.339844 2375.28125 1761.960938 2406.789062 1777.890625 C 2418.871094 1784 2444.261719 1763.019531 2458.921875 1740.910156 Z M 2890.441406 1767.511719 C 2850.539062 1784.03125 2826.648438 1762.601562 2810.53125 1764.621094 C 2763.320312 1770.558594 2721.648438 1808.71875 2721.648438 1808.71875 C 2721.648438 1808.71875 2786.949219 1766.039062 2818.5 1794.25 C 2830.589844 1805.058594 2866.550781 1788.589844 2890.441406 1767.511719 Z M 1545.140625 1733.910156 C 1578.441406 1747.570312 1579.828125 1774.230469 1590.539062 1782.488281 C 1621.871094 1806.699219 1669.03125 1808.648438 1669.03125 1808.648438 C 1669.03125 1808.648438 1605.269531 1795.488281 1603.378906 1760.359375 C 1602.648438 1746.890625 1571.710938 1735.488281 1545.140625 1733.910156 Z M 2181.378906 1694.648438 C 2168.839844 1724.921875 2144.398438 1726.179688 2136.808594 1735.910156 C 2114.621094 1764.390625 2112.820312 1807.25 2112.820312 1807.25 C 2112.820312 1807.25 2124.890625 1749.300781 2157.121094 1747.578125 C 2169.46875 1746.921875 2179.921875 1718.789062 2181.378906 1694.648438 Z M 1825.039062 1690.960938 C 1845.109375 1716.898438 1833.980469 1738.601562 1838.660156 1750 C 1852.339844 1783.378906 1888.730469 1806.359375 1888.730469 1806.359375 C 1888.730469 1806.359375 1844.351562 1766.980469 1858.960938 1738.328125 C 1864.558594 1727.359375 1845.320312 1704.28125 1825.039062 1690.960938 Z M 2095.808594 1658.320312 C 2091.570312 1690.789062 2068.28125 1698.300781 2063.488281 1709.660156 C 2049.449219 1742.890625 2058.871094 1784.75 2058.871094 1784.75 C 2058.871094 1784.75 2055.460938 1725.671875 2086.140625 1715.699219 C 2097.898438 1711.878906 2100.679688 1682.019531 2095.808594 1658.320312 Z M 1911.359375 1656.410156 C 1923.988281 1686.640625 1907.601562 1704.738281 1909.148438 1716.949219 C 1913.691406 1752.71875 1942.871094 1784.289062 1942.871094 1784.289062 C 1942.871094 1784.289062 1910.238281 1734.820312 1931.800781 1710.910156 C 1940.058594 1701.75 1927.480469 1674.511719 1911.359375 1656.410156 Z M 2621.539062 1647.890625 C 2590.28125 1671.851562 2564.121094 1658.558594 2550.378906 1664.140625 C 2510.160156 1680.480469 2482.46875 1723.941406 2482.46875 1723.941406 C 2482.46875 1723.941406 2529.929688 1670.941406 2564.449219 1688.390625 C 2577.679688 1695.078125 2605.480469 1672.109375 2621.539062 1647.890625 Z M 1382.910156 1640.21875 C 1419.378906 1655.191406 1420.898438 1684.378906 1432.628906 1693.441406 C 1466.949219 1719.941406 1518.609375 1722.089844 1518.609375 1722.089844 C 1518.609375 1722.089844 1448.769531 1707.671875 1446.691406 1669.191406 C 1445.890625 1654.441406 1412.011719 1641.960938 1382.910156 1640.21875 Z M 2267.300781 1547.199219 C 2253.570312 1580.351562 2226.800781 1581.730469 2218.488281 1592.390625 C 2194.179688 1623.578125 2192.21875 1670.53125 2192.21875 1670.53125 C 2192.21875 1670.53125 2205.441406 1607.058594 2240.730469 1605.171875 C 2254.261719 1604.441406 2265.710938 1573.640625 2267.300781 1547.199219 Z M 1739.730469 1543.160156 C 1761.710938 1571.570312 1749.519531 1595.339844 1754.640625 1607.828125 C 1769.621094 1644.378906 1809.480469 1669.550781 1809.480469 1669.550781 C 1809.480469 1669.550781 1760.878906 1626.421875 1776.878906 1595.050781 C 1783.011719 1583.019531 1761.941406 1557.75 1739.730469 1543.160156 Z M 2140.46875 1493.761719 C 2135.828125 1529.320312 2110.320312 1537.550781 2105.070312 1549.980469 C 2089.699219 1586.378906 2100.011719 1632.230469 2100.011719 1632.230469 C 2100.011719 1632.230469 2096.269531 1567.519531 2129.878906 1556.601562 C 2142.761719 1552.410156 2145.800781 1519.710938 2140.46875 1493.761719 Z M 1867.378906 1491.660156 C 1881.21875 1524.769531 1863.269531 1544.589844 1864.960938 1557.96875 C 1869.929688 1597.148438 1901.890625 1631.71875 1901.890625 1631.71875 C 1901.890625 1631.71875 1866.148438 1577.539062 1889.769531 1551.359375 C 1898.820312 1541.320312 1885.03125 1511.488281 1867.378906 1491.660156 Z M 2799.648438 1546.011719 C 2765.410156 1572.25 2736.761719 1557.699219 2721.710938 1563.808594 C 2677.660156 1581.710938 2647.328125 1629.308594 2647.328125 1629.308594 C 2647.328125 1629.308594 2699.308594 1571.261719 2737.121094 1590.371094 C 2751.609375 1597.699219 2782.058594 1572.53125 2799.648438 1546.011719 Z M 1205.21875 1537.609375 C 1245.171875 1554.011719 1246.839844 1585.980469 1259.679688 1595.898438 C 1297.269531 1624.929688 1353.851562 1627.269531 1353.851562 1627.269531 C 1353.851562 1627.269531 1277.359375 1611.488281 1275.078125 1569.339844 C 1274.210938 1553.179688 1237.089844 1539.519531 1205.21875 1537.609375 Z M 2361.410156 1385.699219 C 2346.378906 1422.011719 2317.050781 1423.519531 2307.949219 1435.191406 C 2281.328125 1469.359375 2279.179688 1520.78125 2279.179688 1520.78125 C 2279.179688 1520.78125 2293.648438 1451.261719 2332.308594 1449.191406 C 2347.128906 1448.398438 2359.671875 1414.660156 2361.410156 1385.699219 Z M 1646.289062 1381.269531 C 1670.359375 1412.390625 1657.011719 1438.429688 1662.621094 1452.109375 C 1679.03125 1492.148438 1722.691406 1519.710938 1722.691406 1519.710938 C 1722.691406 1519.710938 1669.449219 1472.46875 1686.980469 1438.109375 C 1693.699219 1424.941406 1670.621094 1397.261719 1646.289062 1381.269531 Z M 2189.378906 1313.511719 C 2184.300781 1352.460938 2156.371094 1361.480469 2150.609375 1375.101562 C 2133.78125 1414.960938 2145.070312 1465.179688 2145.070312 1465.179688 C 2145.070312 1465.179688 2140.980469 1394.300781 2177.78125 1382.339844 C 2191.890625 1377.761719 2195.230469 1341.941406 2189.378906 1313.511719 Z M 1819.210938 1311.21875 C 1834.371094 1347.480469 1814.710938 1369.191406 1816.558594 1383.851562 C 1822.011719 1426.75 1857.011719 1464.628906 1857.011719 1464.628906 C 1857.011719 1464.628906 1817.871094 1405.28125 1843.730469 1376.601562 C 1853.648438 1365.609375 1838.550781 1332.929688 1819.210938 1311.21875 Z M 2464.488281 1208.820312 C 2448.019531 1248.589844 2415.898438 1250.238281 2405.941406 1263.03125 C 2376.769531 1300.449219 2374.421875 1356.769531 2374.421875 1356.769531 C 2374.421875 1356.769531 2390.28125 1280.628906 2432.621094 1278.359375 C 2448.851562 1277.488281 2462.578125 1240.539062 2464.488281 1208.820312 Z M 1543.949219 1203.96875 C 1570.308594 1238.050781 1555.691406 1266.570312 1561.828125 1281.550781 C 1579.808594 1325.410156 1627.621094 1355.589844 1627.621094 1355.589844 C 1627.621094 1355.589844 1569.308594 1303.859375 1588.511719 1266.21875 C 1595.871094 1251.789062 1570.589844 1221.480469 1543.949219 1203.96875 Z M 2242.960938 1116.101562 C 2237.390625 1158.761719 2206.800781 1168.628906 2200.5 1183.550781 C 2182.058594 1227.210938 2194.421875 1282.21875 2194.421875 1282.21875 C 2194.421875 1282.21875 2189.941406 1204.589844 2230.25 1191.488281 C 2245.699219 1186.46875 2249.359375 1147.238281 2242.960938 1116.101562 Z M 1766.449219 1113.589844 C 1783.050781 1153.308594 1761.519531 1177.089844 1763.558594 1193.140625 C 1769.519531 1240.128906 1807.851562 1281.609375 1807.851562 1281.609375 C 1807.851562 1281.609375 1764.980469 1216.609375 1793.308594 1185.199219 C 1804.171875 1173.160156 1787.628906 1137.371094 1766.449219 1113.589844 "/>
<path fill-rule="evenodd" fill="rgb(76.5625%, 88.476562%, 3.599548%)" fill-opacity="1" d="M 1989.648438 2873.328125 C 1989.648438 2898.929688 1978.738281 2923.328125 1959.660156 2940.398438 C 1940.570312 2957.480469 1915.121094 2965.609375 1889.671875 2962.769531 C 1704.878906 2941.761719 1535.789062 2868.71875 1397.421875 2758.640625 C 1377.421875 2742.660156 1365.160156 2718.921875 1363.738281 2693.351562 C 1362.308594 2667.78125 1371.851562 2642.820312 1389.949219 2624.710938 C 1559.570312 2455.070312 1989.648438 2024.988281 1989.648438 2024.988281 C 1989.648438 2024.988281 1989.648438 2633.421875 1989.648438 2873.328125 Z M 2610.058594 2624.699219 C 2628.179688 2642.808594 2637.710938 2667.78125 2636.289062 2693.351562 C 2634.859375 2718.921875 2622.609375 2742.679688 2602.589844 2758.660156 C 2464.199219 2868.730469 2295.109375 2941.78125 2110.328125 2962.761719 C 2084.878906 2965.601562 2059.429688 2957.46875 2040.351562 2940.390625 C 2021.269531 2923.320312 2010.371094 2898.941406 2010.371094 2873.328125 C 2010.351562 2633.429688 2010.351562 2024.988281 2010.351562 2024.988281 C 2010.351562 2024.988281 2440.441406 2455.070312 2610.058594 2624.699219 Z M 1974.371094 2873.328125 C 1974.371094 2894.589844 1965.308594 2914.839844 1949.46875 2929.019531 C 1933.628906 2943.191406 1912.5 2949.941406 1891.378906 2947.589844 C 1709.519531 2926.910156 1543.121094 2855.019531 1406.949219 2746.699219 C 1390.339844 2733.429688 1380.179688 2713.71875 1378.988281 2692.5 C 1377.808594 2671.269531 1385.71875 2650.550781 1400.761719 2635.519531 C 1545.238281 2491.011719 1878.71875 2157.53125 1974.371094 2061.871094 Z M 2599.261719 2635.511719 C 2614.300781 2650.539062 2622.21875 2671.269531 2621.03125 2692.5 C 2619.851562 2713.730469 2609.679688 2733.441406 2593.070312 2746.71875 C 2456.871094 2855.039062 2290.46875 2926.929688 2108.621094 2947.578125 C 2087.5 2949.929688 2066.378906 2943.179688 2050.539062 2929.011719 C 2034.699219 2914.839844 2025.640625 2894.589844 2025.640625 2873.328125 C 2025.628906 2668.96875 2025.628906 2197.179688 2025.628906 2061.871094 C 2121.28125 2157.53125 2454.769531 2491.011719 2599.261719 2635.511719 Z M 1975.011719 2010.351562 C 1975.011719 2010.351562 1544.929688 2440.441406 1375.300781 2610.058594 C 1357.191406 2628.171875 1332.21875 2637.710938 1306.648438 2636.289062 C 1281.078125 2634.859375 1257.320312 2622.609375 1241.339844 2602.589844 C 1131.269531 2464.199219 1058.21875 2295.109375 1037.238281 2110.320312 C 1034.398438 2084.878906 1042.53125 2059.429688 1059.609375 2040.351562 C 1076.679688 2021.269531 1101.058594 2010.371094 1126.671875 2010.371094 C 1366.570312 2010.351562 1975.011719 2010.351562 1975.011719 2010.351562 Z M 2873.328125 2010.351562 C 2898.929688 2010.351562 2923.328125 2021.261719 2940.398438 2040.339844 C 2957.480469 2059.429688 2965.609375 2084.878906 2962.769531 2110.328125 C 2941.761719 2295.121094 2868.71875 2464.210938 2758.640625 2602.578125 C 2742.671875 2622.578125 2718.921875 2634.839844 2693.351562 2636.261719 C 2667.78125 2637.691406 2642.820312 2628.148438 2624.710938 2610.050781 C 2455.070312 2440.429688 2024.988281 2010.351562 2024.988281 2010.351562 C 2024.988281 2010.351562 2633.421875 2010.351562 2873.328125 2010.351562 Z M 1938.128906 2025.628906 C 1842.46875 2121.28125 1508.988281 2454.769531 1364.488281 2599.261719 C 1349.460938 2614.300781 1328.730469 2622.210938 1307.5 2621.03125 C 1286.269531 2619.851562 1266.558594 2609.679688 1253.28125 2593.070312 C 1144.960938 2456.871094 1073.070312 2290.46875 1052.421875 2108.621094 C 1050.070312 2087.5 1056.820312 2066.378906 1070.988281 2050.539062 C 1085.160156 2034.699219 1105.410156 2025.640625 1126.671875 2025.640625 C 1331.03125 2025.628906 1802.820312 2025.628906 1938.128906 2025.628906 Z M 2873.328125 2025.628906 C 2894.589844 2025.628906 2914.839844 2034.691406 2929.019531 2050.53125 C 2943.191406 2066.371094 2949.941406 2087.5 2947.589844 2108.621094 C 2926.910156 2290.480469 2855.019531 2456.878906 2746.699219 2593.050781 C 2733.429688 2609.660156 2713.71875 2619.820312 2692.5 2621.011719 C 2671.269531 2622.191406 2650.550781 2614.28125 2635.519531 2599.238281 C 2491.011719 2454.761719 2157.53125 2121.28125 2061.871094 2025.628906 C 2197.179688 2025.628906 2668.960938 2025.628906 2873.328125 2025.628906 Z M 1975.011719 1989.648438 C 1975.011719 1989.648438 1366.578125 1989.648438 1126.671875 1989.648438 C 1101.070312 1989.648438 1076.671875 1978.738281 1059.601562 1959.660156 C 1042.519531 1940.570312 1034.390625 1915.121094 1037.230469 1889.671875 C 1058.238281 1704.878906 1131.28125 1535.789062 1241.359375 1397.421875 C 1257.339844 1377.410156 1281.078125 1365.160156 1306.648438 1363.738281 C 1332.21875 1362.308594 1357.179688 1371.851562 1375.289062 1389.949219 C 1544.929688 1559.570312 1975.011719 1989.648438 1975.011719 1989.648438 Z M 2624.699219 1389.941406 C 2642.808594 1371.820312 2667.78125 1362.289062 2693.351562 1363.710938 C 2718.921875 1365.140625 2742.679688 1377.390625 2758.660156 1397.410156 C 2868.730469 1535.800781 2941.78125 1704.890625 2962.761719 1889.671875 C 2965.601562 1915.121094 2957.46875 1940.570312 2940.390625 1959.648438 C 2923.328125 1978.730469 2898.941406 1989.628906 2873.328125 1989.628906 C 2633.429688 1989.648438 2024.988281 1989.648438 2024.988281 1989.648438 C 2024.988281 1989.648438 2455.070312 1559.558594 2624.699219 1389.941406 Z M 1989.648438 1975.011719 C 1989.648438 1975.011719 1559.558594 1544.929688 1389.941406 1375.300781 C 1371.828125 1357.191406 1362.289062 1332.21875 1363.710938 1306.648438 C 1365.140625 1281.078125 1377.390625 1257.320312 1397.410156 1241.339844 C 1535.800781 1131.269531 1704.890625 1058.21875 1889.679688 1037.238281 C 1915.121094 1034.398438 1940.570312 1042.53125 1959.648438 1059.609375 C 1978.730469 1076.671875 1989.628906 1101.058594 1989.628906 1126.671875 C 1989.648438 1366.570312 1989.648438 1975.011719 1989.648438 1975.011719 Z M 2010.351562 1126.671875 C 2010.351562 1101.070312 2021.261719 1076.671875 2040.339844 1059.601562 C 2059.429688 1042.519531 2084.878906 1034.390625 2110.328125 1037.230469 C 2295.121094 1058.238281 2464.210938 1131.28125 2602.578125 1241.359375 C 2622.589844 1257.328125 2634.839844 1281.078125 2636.261719 1306.648438 C 2637.691406 1332.21875 2628.148438 1357.179688 2610.050781 1375.289062 C 2440.429688 1544.929688 2010.351562 1975.011719 2010.351562 1975.011719 C 2010.351562 1975.011719 2010.351562 1366.578125 2010.351562 1126.671875 Z M 1938.128906 1974.371094 L 1126.671875 1974.371094 C 1105.410156 1974.371094 1085.160156 1965.308594 1070.980469 1949.46875 C 1056.808594 1933.628906 1050.058594 1912.5 1052.410156 1891.378906 C 1073.089844 1709.519531 1144.980469 1543.121094 1253.300781 1406.949219 C 1266.570312 1390.339844 1286.28125 1380.179688 1307.5 1378.988281 C 1328.730469 1377.808594 1349.449219 1385.71875 1364.480469 1400.761719 C 1508.988281 1545.238281 1842.46875 1878.71875 1938.128906 1974.371094 Z M 2635.511719 1400.738281 C 2650.539062 1385.699219 2671.269531 1377.78125 2692.5 1378.96875 C 2713.730469 1380.148438 2733.449219 1390.320312 2746.71875 1406.929688 C 2855.039062 1543.128906 2926.929688 1709.53125 2947.578125 1891.378906 C 2949.929688 1912.5 2943.179688 1933.621094 2929.011719 1949.460938 C 2914.839844 1965.300781 2894.589844 1974.359375 2873.328125 1974.359375 C 2668.96875 1974.371094 2197.179688 1974.371094 2061.871094 1974.371094 C 2157.53125 1878.71875 2491.011719 1545.230469 2635.511719 1400.738281 Z M 1974.371094 1938.128906 L 1400.738281 1364.488281 C 1385.699219 1349.460938 1377.789062 1328.730469 1378.96875 1307.5 C 1380.148438 1286.269531 1390.320312 1266.550781 1406.929688 1253.28125 C 1543.128906 1144.960938 1709.53125 1073.070312 1891.378906 1052.421875 C 1912.5 1050.070312 1933.621094 1056.820312 1949.460938 1070.988281 C 1965.300781 1085.160156 1974.359375 1105.410156 1974.359375 1126.671875 C 1974.371094 1331.03125 1974.371094 1802.820312 1974.371094 1938.128906 Z M 2025.628906 1126.671875 C 2025.628906 1105.410156 2034.691406 1085.160156 2050.53125 1070.980469 C 2066.371094 1056.808594 2087.5 1050.058594 2108.621094 1052.410156 C 2290.480469 1073.089844 2456.878906 1144.980469 2593.050781 1253.300781 C 2609.660156 1266.570312 2619.820312 1286.28125 2621.011719 1307.5 C 2622.191406 1328.730469 2614.28125 1349.449219 2599.238281 1364.480469 C 2454.761719 1508.988281 2121.28125 1842.46875 2025.628906 1938.128906 C 2025.628906 1802.820312 2025.628906 1331.039062 2025.628906 1126.671875 "/>
</svg>
